<?xml version="1.0" encoding="utf-8"?>
<svg width="182.14502px" height="111.50003px" viewBox="0 0 182.14502 111.50003" version="1.1" xmlns:xlink="http://www.w3.org/1999/xlink" xmlns="http://www.w3.org/2000/svg">
  <defs>
    <filter id="filter_1">
      <feColorMatrix in="SourceGraphic" type="matrix" values="0 0 0 0 0 0 0 0 0 0.5882353 0 0 0 0 0.53333336 0 0 0 1 0" color-interpolation-filters="sRGB" />
    </filter>
    <path d="M0 0L182.145 0L182.145 111.5L0 111.5L0 0Z" id="path_1" />
    <clipPath id="mask_1">
      <use xlink:href="#path_1" />
    </clipPath>
  </defs>
  <g id="Logo" filter="url(#filter_1)">
    <path d="M0 0L182.145 0L182.145 111.5L0 111.5L0 0Z" id="Background" fill="#FFFFFF" fill-opacity="0" fill-rule="evenodd" stroke="none" />
    <g clip-path="url(#mask_1)">
      <g id="Group-2" transform="translate(0.85114014 0.8511453)">
        <path d="M29.1631 56.1496C29.5621 55.1788 29.7616 54.0533 29.7616 52.7733C29.7616 51.1176 29.4391 49.7228 28.7941 48.5891C28.1524 47.4553 27.2846 46.5975 26.1908 46.0157C25.097 45.4305 23.8785 45.1379 22.5353 45.1379C21.182 45.1379 19.9602 45.4305 18.8697 46.0157C17.7791 46.5975 16.913 47.4553 16.2713 48.5891C15.6296 49.7228 15.3088 51.1176 15.3088 52.7733C15.3088 54.4158 15.6296 55.8039 16.2713 56.9376C16.913 58.0713 17.7791 58.9324 18.8697 59.521C19.9602 60.1095 21.182 60.4038 22.5353 60.4038C23.4495 60.4038 24.3056 60.2708 25.1037 60.0047L26.2207 61.3014L29.7916 61.3014L27.5323 58.5735C28.2206 57.9251 28.7642 57.1172 29.1631 56.1496L29.1631 56.1496ZM2.65983 45.3424L2.65983 60.1992L13.3374 60.1992L13.3374 56.9476L6.69446 56.9476L6.69446 54.3941L12.8137 54.3941L12.8137 51.1475L6.69446 51.1475L6.69446 48.594L13.3673 48.594L13.3673 45.3424L2.65983 45.3424L2.65983 45.3424ZM40.4387 45.3424L44.4733 45.3424L44.4733 54.8579C44.4733 55.9917 44.2024 56.9708 43.6605 57.7953C43.1219 58.6199 42.3705 59.2566 41.4063 59.7055C40.4454 60.151 39.3299 60.3738 38.0598 60.3738C36.7765 60.3738 35.6528 60.151 34.6886 59.7055C33.7277 59.2566 32.9796 58.6199 32.4443 57.7953C31.9124 56.9708 31.6464 55.9917 31.6464 54.8579L31.6464 45.3424L35.681 45.3424L35.681 54.5138C35.681 55.2054 35.9038 55.7756 36.3493 56.2244C36.7982 56.67 37.3683 56.8927 38.0598 56.8927C38.7514 56.8927 39.3199 56.67 39.7655 56.2244C40.2143 55.7756 40.4387 55.2054 40.4387 54.5138L40.4387 45.3424L40.4387 45.3424ZM45.8926 60.1992L50.2463 60.1992L51.0992 57.3565L56.0065 57.3565L56.8594 60.1992L61.2132 60.1992L56.3107 45.3424L50.795 45.3424L45.8926 60.1992L45.8926 60.1992ZM24.2459 54.6884L21.1138 54.6884L22.7746 56.8827C22.6981 56.8894 22.6183 56.8927 22.5353 56.8927C21.5344 56.8927 20.7713 56.5403 20.246 55.8354C19.7208 55.1273 19.4582 54.1065 19.4582 52.7733C19.4582 51.4367 19.7208 50.416 20.246 49.7112C20.7713 49.003 21.5344 48.6489 22.5353 48.6489C23.536 48.6489 24.299 49.003 24.8243 49.7112C25.3497 50.416 25.6123 51.4367 25.6123 52.7733C25.6123 53.9669 25.4012 54.9111 24.9789 55.606L24.2459 54.6884L24.2459 54.6884ZM55.0888 54.3393L52.0169 54.3393L53.4929 49.4319L53.6128 49.4319L55.0888 54.3393L55.0888 54.3393Z" id="EQUA" fill="#808080" fill-rule="evenodd" stroke="#808080" stroke-width="1" />
        <path d="M125.855 60.1992L125.855 45.3424L121.82 45.3424L121.82 60.1992L125.855 60.1992L125.855 60.1992ZM127.828 57.9649L127.828 60.1992L139.957 60.1992L139.957 56.9476L132.96 56.9476L139.982 47.5767L139.982 45.3424L127.853 45.3424L127.853 48.594L134.85 48.594L127.828 57.9649L127.828 57.9649ZM141.957 60.1992L141.957 45.3424L152.664 45.3424L152.664 48.594L145.992 48.594L145.992 51.1475L152.111 51.1475L152.111 54.3941L145.992 54.3941L145.992 56.9476L152.634 56.9476L152.634 60.1992L141.957 60.1992L141.957 60.1992ZM154.666 45.3424L154.666 60.1992L158.7 60.1992L158.7 55.2968L160.092 55.2968L162.705 60.1992L167.084 60.1992L164.066 54.6584C164.855 54.2761 165.471 53.7275 165.917 53.0127C166.366 52.2945 166.59 51.4201 166.59 50.3894C166.59 49.3355 166.361 48.4328 165.902 47.6814C165.443 46.9267 164.8 46.3482 163.972 45.9459C163.144 45.5436 162.18 45.3424 161.079 45.3424L154.666 45.3424L154.666 45.3424ZM160.122 52.1599L158.7 52.1599L158.7 48.5641L160.122 48.5641C160.826 48.5641 161.38 48.7088 161.782 48.998C162.185 49.2873 162.386 49.7511 162.386 50.3894C162.386 51.0245 162.185 51.4783 161.782 51.7509C161.38 52.0236 160.826 52.1599 160.122 52.1599L160.122 52.1599Z" id="IZER" fill="#808080" fill-rule="evenodd" stroke="#808080" stroke-width="1" />
        <path d="M83.4122 101.286L52.771 105.808L52.771 109.798L122.565 109.798L122.565 109.798L122.565 109.798L122.565 105.808L92.7748 101.286L100.435 19.5763L107.244 19.5763L107.244 71.4962L180.443 71.4962L180.443 65.5382L112.351 65.5382L112.351 12.7672L96.1317 12.7672L102.137 0L89.4843 5.19498e-05L75.7519 0L82.497 12.7672L66.8682 12.7672L66.8682 65.5382L0 65.5382L0 71.4962L72.2677 71.4962L72.2677 19.5763L78.2522 19.5763L83.4122 101.286L83.4122 101.286Z" id="Vector" fill="none" fill-rule="evenodd" stroke="#808080" stroke-width="1" />
      </g>
    </g>
  </g>
</svg>