<?xml version="1.0" encoding="utf-8"?>
<svg width="64px" height="64px" viewBox="0 0 64 64" version="1.1" xmlns:xlink="http://www.w3.org/1999/xlink" xmlns="http://www.w3.org/2000/svg">
  <g id="Whatsapp-Icon-3">
    <path d="M32 0C14.328 0 0 14.328 0 32C0 38.0032 1.68624 43.6002 4.5625 48.401L0.286458 64L16.2188 59.8177C20.8783 62.4668 26.2573 64 32 64C49.672 64 64 49.672 64 32C64 14.328 49.672 0 32 0L32 0ZM21.047 17.073C21.567 17.073 22.1013 17.0698 22.5626 17.0938C23.1333 17.1071 23.7544 17.1489 24.3491 18.4636C25.0557 20.0263 26.5944 23.9465 26.7918 24.3438C26.9891 24.7411 27.1289 25.2092 26.8543 25.7292C26.5929 26.2625 26.457 26.5853 26.073 27.0573C25.6757 27.516 25.2403 28.0857 24.8803 28.4323C24.483 28.8297 24.0727 29.2653 24.5313 30.0573C24.99 30.8493 26.5829 33.4457 28.9376 35.5417C31.9643 38.2457 34.5179 39.0767 35.3126 39.474C36.1073 39.8713 36.5675 39.8094 37.0261 39.2761C37.4981 38.7561 39.0084 36.9718 39.5418 36.1771C40.0618 35.3825 40.5926 35.52 41.3126 35.7813C42.0433 36.0426 45.9398 37.9621 46.7345 38.3594C47.5291 38.7568 48.0501 38.9534 48.2501 39.2761C48.4554 39.6094 48.4556 41.1963 47.797 43.0469C47.1383 44.8949 43.9039 46.682 42.4532 46.8073C40.9892 46.9433 39.6229 47.4654 32.9376 44.8334C24.8736 41.6574 19.7881 33.398 19.3907 32.8646C18.9934 32.3446 16.1616 28.5705 16.1616 24.6771C16.1616 20.7705 18.2098 18.8572 18.9272 18.0625C19.6578 17.2679 20.5136 17.073 21.047 17.073L21.047 17.073Z" id="Shape" fill="#FFFFFF" fill-rule="evenodd" stroke="none" />
  </g>
</svg>